# xmcd
#
# Track frame offsets:
#	150
#	17307
#	39934
#	54488
#	72245
#	95415
#	111207
#	128269
#	152096
#	172698
#	192457
#	208529
#	227951
#	245598
#	263783
#	287517
#	305439
#
# Disc length: 4368 seconds
#
# Revision: 2
# Processed by: cddbd v1.4PL0 Copyright (c) Steve Scherf et al.
# Submitted via: EasyCDDAExtractor 6.0.0.1
#
DISCID=d9110e11
DTITLE=Zé Ramalho - Acustico
DYEAR=2001
DGENRE=Pop
TTITLE0=Batendo na Porta do Cêu
TTITLE1=Jardim das Acácias II
TTITLE2=Pepitas de Fogo
TTITLE3=Mulher Nova Bonita e Carinhosa
TTITLE4=Adimiravel Gado Novo
TTITLE5=Força Verde
TTITLE6=Banquete de Signos
TTITLE7=Avohai
TTITLE8=Chão de Giz
TTITLE9=Beira Mar
TTITLE10=Vila do Sossego
TTITLE11=Canção Agalopada
TTITLE12=A Terceira Lamina
TTITLE13=Eternas Ondas
TTITLE14=Garoto de Aluguel
TTITLE15=Taxi Lunar
TTITLE16=Kryptonita
EXTD=
EXTT0=
EXTT1=
EXTT2=
EXTT3=
EXTT4=
EXTT5=
EXTT6=
EXTT7=
EXTT8=
EXTT9=
EXTT10=
EXTT11=
EXTT12=
EXTT13=
EXTT14=
EXTT15=
EXTT16=
PLAYORDER=
